<svg width="270" height="281" viewBox="0 0 270 281" fill="none" xmlns="http://www.w3.org/2000/svg">
<path fill-rule="evenodd" clip-rule="evenodd" d="M170.841 16.529C173.42 20.0189 175.726 23.692 177.758 27.5483C175.869 30.1202 173.563 32.1863 170.841 33.7467C156.314 17.7883 138.56 12.8526 117.578 18.9395C100.842 25.8376 90.9274 38.1196 87.8335 55.7853C87.522 59.4789 88.9054 62.2338 91.9838 64.0498C88.1045 66.7626 84.6459 69.9769 81.6079 73.6917C78.1959 72.2627 76.8125 73.4107 77.4576 77.1353C76.3928 72.3612 75.9316 67.4259 76.0741 62.3281C75.7447 56.4698 76.4364 50.8454 78.1493 45.4547C78.1899 46.9853 78.9969 47.674 80.5703 47.5208C83.3942 47.0672 84.3165 45.4602 83.3372 42.6999C82.3382 41.5598 81.07 41.1007 79.5327 41.3225C80.0611 39.5885 80.7528 37.9816 81.6079 36.5015C82.485 38.4761 83.8684 38.9352 85.7583 37.8789C92.9886 24.5718 103.71 15.1594 117.924 9.64191C118.53 8.14452 118.184 6.99666 116.886 6.19837C136.547 0.792631 154.532 4.23618 170.841 16.529Z" fill="#8892CB"/>
<path fill-rule="evenodd" clip-rule="evenodd" d="M116.886 6.19837C118.184 6.99666 118.53 8.14452 117.924 9.64191C103.71 15.1594 92.9886 24.5718 85.7583 37.8789C83.8684 38.9352 82.485 38.4761 81.6079 36.5015C86.3224 26.9893 93.0091 19.184 101.668 13.0854C106.395 10.044 111.467 7.74824 116.886 6.19837Z" fill="#C5C9E6"/>
<path fill-rule="evenodd" clip-rule="evenodd" d="M127.262 0C130.721 0 134.179 0 137.638 0C138.791 0 139.943 0 141.097 0C144.081 0.533425 147.078 0.992559 150.089 1.37742C150.899 1.95913 151.822 2.41827 152.856 2.75483C155.155 3.43836 157.46 4.12708 159.773 4.82095C160.475 5.62929 161.397 6.08845 162.54 6.19837C164.498 7.51849 166.574 8.66629 168.766 9.64191C169.227 10.5602 169.919 11.2489 170.841 11.708C172.686 13.0854 174.53 14.4629 176.375 15.8403C176.836 16.7585 177.528 17.4472 178.45 17.9064C180.084 19.7604 181.698 21.597 183.292 23.4161C183.591 24.2491 184.052 24.9378 184.675 25.4822C186.082 27.5641 187.465 29.6302 188.826 31.6806C188.865 32.4443 189.096 33.133 189.517 33.7467C190.821 35.8841 191.743 38.1798 192.284 40.6338C192.623 41.6635 193.083 42.5818 193.668 43.3886C194.272 46.4763 194.963 49.4608 195.743 52.3418C195.743 53.26 195.743 54.1784 195.743 55.0966C195.743 58.5402 195.743 61.9837 195.743 65.4272C195.743 66.5753 195.743 67.7227 195.743 68.8708C195.762 72.5636 195.531 76.2365 195.051 79.8901C194.47 81.1842 194.239 82.5616 194.36 84.0224C192.776 88.4914 191.624 93.0823 190.901 97.7965C190.44 97.7965 190.209 98.0258 190.209 98.4852C189.979 99.8626 189.748 101.24 189.517 102.617C188.151 107.14 186.998 111.731 186.059 116.392C185.492 117.956 185.032 119.564 184.675 121.213C183.522 125.804 182.37 130.395 181.217 134.987C181.217 135.216 181.217 135.446 181.217 135.675C179.603 136.593 177.988 137.512 176.375 138.43C181.655 118.551 186.612 98.5782 191.247 78.5127C196.099 53.8669 189.297 33.2056 170.841 16.529C154.532 4.23618 136.547 0.792631 116.886 6.19837C111.467 7.74824 106.395 10.044 101.668 13.0854C103.051 11.0193 104.435 8.9532 105.818 6.88708C106.365 6.26635 107.057 5.80725 107.894 5.50966C108.355 5.50966 108.585 5.28012 108.585 4.82095C113.265 2.90974 118.107 1.53233 123.112 0.688708C124.495 0.459141 125.879 0.229567 127.262 0Z" fill="#3F456B"/>
<path fill-rule="evenodd" clip-rule="evenodd" d="M170.841 33.7467C176.038 40.3127 179.265 47.7737 180.525 56.1297C179.378 63.1069 175.228 65.9768 168.074 64.7385C142.681 64.9593 117.318 64.7297 91.9838 64.0498C88.9054 62.2338 87.522 59.4789 87.8335 55.7853C90.9274 38.1196 100.842 25.8376 117.578 18.9395C138.56 12.8526 156.314 17.7883 170.841 33.7467Z" fill="#444A70"/>
<path fill-rule="evenodd" clip-rule="evenodd" d="M129.337 19.9725C130.259 19.9725 131.182 19.9725 132.104 19.9725C132.104 21.3499 132.104 22.7274 132.104 24.1048C129.998 24.1102 127.923 24.3398 125.879 24.7935C125.381 23.2344 125.151 21.6274 125.187 19.9725C126.57 19.9725 127.954 19.9725 129.337 19.9725Z" fill="#D2D3D8"/>
<path fill-rule="evenodd" clip-rule="evenodd" d="M138.33 19.9725C137.638 19.9725 136.946 19.9725 136.254 19.9725C136.254 21.1204 136.254 22.2682 136.254 23.4161C136.254 23.8752 136.024 24.1048 135.563 24.1048C135.563 22.4978 135.563 20.8908 135.563 19.2838C136.669 19.0994 137.591 19.3289 138.33 19.9725Z" fill="#878AA0"/>
<path fill-rule="evenodd" clip-rule="evenodd" d="M85.7583 10.3306C86.6421 10.525 87.3338 10.9841 87.8335 11.708C86.5956 14.6777 84.6358 17.203 81.9538 19.2838C77.7036 24.7642 74.3601 30.733 71.9237 37.1902C71.4626 37.1902 71.232 37.4198 71.232 37.8789C70.4944 39.3951 70.0333 41.002 69.8486 42.6999C69.4487 44.6765 68.2958 45.8243 66.3899 46.1434C65.5061 45.9491 64.8144 45.4899 64.3147 44.766C65.7679 39.5762 67.6124 34.5257 69.8486 29.6144C70.3097 29.6144 70.5403 29.3849 70.5403 28.9257C72.108 26.492 73.4915 23.9668 74.6907 21.3499C77.7028 16.9735 81.392 13.3005 85.7583 10.3306Z" fill="#3E4469"/>
<path fill-rule="evenodd" clip-rule="evenodd" d="M170.841 16.529C189.297 33.2056 196.099 53.8669 191.247 78.5127C186.612 98.5782 181.655 118.551 176.375 138.43C175.171 142.496 172.634 145.366 168.766 147.039C145.247 147.498 121.728 147.498 98.2094 147.039C96.9479 146.585 96.0256 145.781 95.4425 144.629C96.4872 143.708 97.6401 142.905 98.9011 142.218C122.479 142.209 145.997 141.75 169.457 140.841C170.529 140.005 171.335 138.972 171.878 137.742C176.611 117.749 181.453 97.7765 186.405 77.824C187.036 74.4052 187.381 70.9617 187.442 67.4934C189.226 53.0151 185.998 39.7001 177.758 27.5483C175.726 23.692 173.42 20.0189 170.841 16.529Z" fill="#6B7AAC"/>
<path fill-rule="evenodd" clip-rule="evenodd" d="M122.42 26.1709C120.233 27.1441 118.158 28.2919 116.194 29.6144C116.075 27.769 115.383 26.1621 114.119 24.7935C116.33 22.646 118.866 21.9573 121.728 22.7274C122.288 23.8092 122.519 24.9571 122.42 26.1709Z" fill="#D1D1D7"/>
<path fill-rule="evenodd" clip-rule="evenodd" d="M129.337 19.9725C130.319 19.3175 131.471 19.0879 132.796 19.2838C132.796 20.8908 132.796 22.4978 132.796 24.1048C132.565 24.1048 132.334 24.1048 132.104 24.1048C132.104 22.7274 132.104 21.3499 132.104 19.9725C131.182 19.9725 130.259 19.9725 129.337 19.9725Z" fill="#85889E"/>
<path fill-rule="evenodd" clip-rule="evenodd" d="M136.254 23.4161C138.113 23.303 139.958 23.4178 141.788 23.7604C129.428 35.9515 117.208 48.2335 105.127 60.6063C103.051 60.6063 100.976 60.6063 98.9011 60.6063C100.51 48.2095 106.044 38.1085 115.503 30.3031C115.964 30.3031 116.194 30.0736 116.194 29.6144C118.158 28.2919 120.233 27.1441 122.42 26.1709C124.262 27.3208 125.415 26.8617 125.879 24.7935C127.923 24.3398 129.998 24.1102 132.104 24.1048C132.334 24.1048 132.565 24.1048 132.796 24.1048C133.718 25.023 134.641 25.023 135.563 24.1048C136.024 24.1048 136.254 23.8752 136.254 23.4161Z" fill="#F0F0F0"/>
<path fill-rule="evenodd" clip-rule="evenodd" d="M138.33 19.9725C142.918 19.1459 144.301 20.8676 142.48 25.1378C143.056 26.8596 144.094 27.204 145.593 26.1709C146.155 24.8378 146.501 23.4603 146.63 22.0386C149.379 22.374 151.916 23.2923 154.239 24.7935C153.366 25.8463 152.674 26.9942 152.164 28.237C140.67 38.5318 129.603 49.3215 118.961 60.6063C114.35 60.6063 109.738 60.6063 105.127 60.6063C117.208 48.2335 129.428 35.9515 141.788 23.7604C139.958 23.4178 138.113 23.303 136.254 23.4161C136.254 22.2682 136.254 21.1204 136.254 19.9725C136.946 19.9725 137.638 19.9725 138.33 19.9725Z" fill="#EEEEEF"/>
<path fill-rule="evenodd" clip-rule="evenodd" d="M195.743 24.1048C195.973 25.023 196.204 25.9414 196.435 26.8596C196.162 28.3816 195.24 29.2998 193.668 29.6144C192.901 29.5752 192.209 29.3457 191.593 28.9257C190.053 24.7228 191.436 23.1157 195.743 24.1048Z" fill="#3F4468"/>
<path fill-rule="evenodd" clip-rule="evenodd" d="M160.465 35.8128C154.968 40.3645 149.665 45.1855 144.555 50.2757C146.379 46.188 148.569 42.2854 151.127 38.5676C151.588 37.6494 151.588 36.7311 151.127 35.8128C150.63 35.1581 150.054 35.0434 149.397 35.4684C144.056 43.6953 138.983 52.0746 134.179 60.6063C129.107 60.6063 124.034 60.6063 118.961 60.6063C129.603 49.3215 140.67 38.5318 152.164 28.237C152.164 28.9257 152.164 29.6144 152.164 30.3031C153.114 30.4111 154.037 30.2963 154.931 29.9588C155.814 27.198 157.428 26.5093 159.773 27.8927C160.955 28.9323 162.107 29.9653 163.232 30.9918C161.687 32.2875 160.764 33.8945 160.465 35.8128Z" fill="#EDEDEE"/>
<path fill-rule="evenodd" clip-rule="evenodd" d="M105.818 6.88708C104.435 8.9532 103.051 11.0193 101.668 13.0854C93.0091 19.184 86.3224 26.9893 81.6079 36.5015C80.7528 37.9816 80.0611 39.5885 79.5327 41.3225C78.6821 42.5602 78.2209 43.9376 78.1493 45.4547C76.4364 50.8454 75.7447 56.4698 76.0741 62.3281C75.9316 67.4259 76.3928 72.3612 77.4576 77.1353C80.494 92.1691 83.9526 107.091 87.8335 121.901C87.9867 123.669 88.4479 125.277 89.2169 126.722C89.4648 128.628 89.926 130.464 90.6004 132.232C90.9714 134.859 91.6632 137.384 92.6756 139.808C92.6756 140.037 92.6756 140.267 92.6756 140.496C91.6919 141.478 90.539 142.166 89.2169 142.562C88.6608 140.442 87.9691 138.376 87.1418 136.364C87.327 135.263 87.0965 134.345 86.45 133.609C86.1745 130.675 85.4827 127.92 84.3748 125.345C84.5601 124.244 84.3295 123.326 83.6831 122.59C83.4075 119.655 82.7158 116.901 81.6079 114.325C81.7932 113.224 81.5626 112.306 80.9162 111.571C80.5312 108.436 79.8395 105.451 78.841 102.617C79.0263 101.516 78.7957 100.598 78.1493 99.8626C77.8737 96.928 77.182 94.1732 76.0741 91.5981C76.2594 90.4969 76.0288 89.5788 75.3824 88.8433C75.0102 86.0719 74.549 83.3171 73.9989 80.5788C74.0456 79.574 73.815 78.6559 73.3072 77.824C72.8738 74.6277 72.6432 71.4142 72.6155 68.1821C72.1077 67.3501 71.8771 66.4321 71.9237 65.4272C71.7622 61.7119 71.9928 58.0388 72.6155 54.4079C72.6155 53.26 72.6155 52.1122 72.6155 50.9644C73.8901 46.1188 75.2735 41.2979 76.7658 36.5015C77.227 36.5015 77.4576 36.272 77.4576 35.8128C78.6308 33.5056 79.7836 31.2098 80.9162 28.9257C86.6806 20.8908 93.5979 14.0037 101.668 8.26449C103.051 7.80533 104.435 7.34624 105.818 6.88708Z" fill="#40466C"/>
<path fill-rule="evenodd" clip-rule="evenodd" d="M177.758 27.5483C185.998 39.7001 189.226 53.0151 187.442 67.4934C187.551 66.5478 187.435 65.6292 187.096 64.7385C183.868 67.9527 180.641 71.1662 177.412 74.3804C177.294 79.3247 176.948 84.1456 176.375 88.8433C176.489 82.1821 176.375 75.5244 176.029 68.8708C173.438 66.1896 170.902 66.1896 168.42 68.8708C168.074 75.7537 167.959 82.6408 168.074 89.532C167.511 88.0644 167.165 86.4576 167.036 84.7111C165.339 86.0478 164.071 87.6553 163.232 89.532C160.779 85.4769 157.782 81.8033 154.239 78.5127C159.081 74.1511 163.693 69.5595 168.074 64.7385C175.228 65.9768 179.378 63.1069 180.525 56.1297C179.265 47.7737 176.038 40.3127 170.841 33.7467C173.563 32.1863 175.869 30.1202 177.758 27.5483Z" fill="#8791CB"/>
<path fill-rule="evenodd" clip-rule="evenodd" d="M115.503 30.3031C106.044 38.1085 100.51 48.2095 98.9011 60.6063C100.976 60.6063 103.051 60.6063 105.127 60.6063C109.738 60.6063 114.35 60.6063 118.961 60.6063C124.034 60.6063 129.107 60.6063 134.179 60.6063C120.924 61.4068 107.551 61.5216 94.059 60.9506C93.0693 60.6302 92.2622 60.0563 91.638 59.2289C91.2935 57.1754 91.1782 55.1093 91.2921 53.0305C92.9557 53.2828 94.5697 53.742 96.1342 54.4079C98.1376 54.0472 98.5987 53.0142 97.5176 51.3087C95.9682 50.6359 94.3542 50.2915 92.6756 50.2757C93.2546 47.7438 94.1769 45.3333 95.4425 43.0442C96.9638 43.5575 98.5779 44.1315 100.285 44.766C101.809 44.7475 102.386 44.0588 102.014 42.6999C100.453 41.6354 98.954 40.4875 97.5176 39.2563C98.818 37.4717 100.201 35.7499 101.668 34.091C103.496 35.2886 105.571 36.0921 107.894 36.5015C107.921 34.2221 106.998 32.3856 105.127 30.9918C106.969 29.2754 108.929 27.6684 111.006 26.1709C111.781 28.4684 113.28 29.8458 115.503 30.3031Z" fill="#CDCED4"/>
<path fill-rule="evenodd" clip-rule="evenodd" d="M79.5327 41.3225C81.07 41.1007 82.3382 41.5598 83.3372 42.6999C84.3165 45.4602 83.3942 47.0672 80.5703 47.5208C78.9969 47.674 78.1899 46.9853 78.1493 45.4547C78.2209 43.9376 78.6821 42.5602 79.5327 41.3225Z" fill="#C2C6E3"/>
<path fill-rule="evenodd" clip-rule="evenodd" d="M144.555 50.2757C149.665 45.1855 154.968 40.3645 160.465 35.8128C161.227 36.5692 162.149 36.684 163.232 36.1572C164.052 35.2253 164.974 34.4218 165.999 33.7467C167.723 35.5808 169.337 37.5321 170.841 39.6007C169.573 40.4042 168.304 41.2077 167.036 42.0112C166.697 42.9018 166.582 43.8201 166.69 44.766C168.827 44.8505 170.671 44.1618 172.224 42.6999C174.125 44.8767 175.047 47.402 174.991 50.2757C172.769 50.0042 171.155 50.8076 170.149 52.6861C170.265 53.7192 170.841 54.2931 171.878 54.4079C176.178 51.8412 177.791 52.989 176.721 57.8515C176.178 59.0815 175.371 60.1145 174.299 60.9506C162.079 61.4098 149.859 61.4098 137.638 60.9506C140.046 57.4063 142.352 53.8479 144.555 50.2757Z" fill="#ECECED"/>
<path fill-rule="evenodd" clip-rule="evenodd" d="M64.3147 48.8983C67.4358 49.1523 68.4733 50.7593 67.4275 53.7192C64.0443 55.9821 62.315 55.0638 62.2396 50.9644C62.4701 50.2757 62.9313 49.8165 63.623 49.587C64.0842 49.587 64.3147 49.3574 64.3147 48.8983Z" fill="#3F446A"/>
<path fill-rule="evenodd" clip-rule="evenodd" d="M199.893 33.7467C200.004 34.8851 200.465 35.8034 201.277 36.5015C201.832 39.0764 202.524 41.6017 203.352 44.0773C203.167 45.1785 203.398 46.0969 204.044 46.8321C204.26 50.1744 204.721 53.3883 205.427 56.474C205.427 57.3923 205.427 58.3106 205.427 59.2289C205.588 62.9442 205.358 66.6173 204.736 70.2482C204.736 71.3963 204.736 72.5436 204.736 73.6917C204.393 75.0567 204.047 76.4342 203.698 77.824C202.76 78.43 201.722 78.6601 200.585 78.5127C200.077 77.6807 199.847 76.7627 199.893 75.7578C200.555 71.8901 201.017 67.9872 201.277 64.0498C201.277 62.9019 201.277 61.7541 201.277 60.6063C201.011 57.5001 200.55 54.5157 199.893 51.6531C199.893 50.5052 199.893 49.3574 199.893 48.2095C199.175 45.3303 198.253 42.5755 197.127 39.945C197.29 39.0559 197.06 38.3672 196.435 37.8789C195.849 36.0473 195.503 34.2107 195.397 32.3693C197.582 30.3766 199.08 30.8358 199.893 33.7467Z" fill="#3E4469"/>
<path fill-rule="evenodd" clip-rule="evenodd" d="M91.9838 64.0498C117.318 64.7297 142.681 64.9593 168.074 64.7385C163.693 69.5595 159.081 74.1511 154.239 78.5127C149.345 74.7441 143.811 72.4486 137.638 71.6256C123.92 70.4782 113.198 75.5285 105.473 86.7772C98.8118 99.9342 99.6188 112.561 107.894 124.656C103.051 129.936 97.9789 134.987 92.6756 139.808C91.6632 137.384 90.9714 134.859 90.6004 132.232C94.3011 132.671 95.7998 131.063 95.0966 127.411C93.3385 125.801 91.3785 125.571 89.2169 126.722C88.4479 125.277 87.9867 123.669 87.8335 121.901C90.3761 122.301 91.7595 121.268 91.9839 118.802C88.4664 103.762 85.0077 88.7249 81.6079 73.6917C84.6459 69.9769 88.1045 66.7626 91.9838 64.0498Z" fill="#8993CC"/>
<path fill-rule="evenodd" clip-rule="evenodd" d="M176.375 88.8433C176.276 91.4638 174.892 92.6112 172.224 92.2868C169.882 92.6994 168.499 91.7813 168.074 89.532C167.959 82.6408 168.074 75.7537 168.42 68.8708C170.902 66.1896 173.438 66.1896 176.029 68.8708C176.375 75.5244 176.489 82.1821 176.375 88.8433Z" fill="#6876A7"/>
<path fill-rule="evenodd" clip-rule="evenodd" d="M130.029 75.0691C138.72 74.2427 146.329 76.6532 152.856 82.3006C148.475 86.6622 144.094 91.0244 139.713 95.386C137.544 95.2097 135.353 94.8654 133.142 94.353C131.156 94.8413 129.195 95.1856 127.262 95.386C122.741 90.9996 118.36 86.523 114.119 81.9562C118.66 77.9755 123.963 75.68 130.029 75.0691Z" fill="#B4BBD0"/>
<path fill-rule="evenodd" clip-rule="evenodd" d="M171.533 70.2482C172.222 70.189 172.798 70.419 173.262 70.9369C173.608 77.1311 173.723 83.3295 173.608 89.532C172.686 89.532 171.763 89.532 170.841 89.532C170.63 83.0464 170.86 76.6187 171.533 70.2482Z" fill="#3F446A"/>
<path fill-rule="evenodd" clip-rule="evenodd" d="M126.57 79.2014C132.45 78.8116 138.214 79.3853 143.863 80.9232C145.713 82.3887 145.598 83.6511 143.518 84.7111C136.618 81.9796 129.701 81.9796 122.766 84.7111C121.252 84.3261 120.792 83.4073 121.382 81.9562C123.121 80.9204 124.851 80.0017 126.57 79.2014Z" fill="#454A6F"/>
<path fill-rule="evenodd" clip-rule="evenodd" d="M187.442 67.4934C187.381 70.9617 187.036 74.4052 186.405 77.824C181.453 97.7765 176.611 117.749 171.878 137.742C171.335 138.972 170.529 140.005 169.457 140.841C145.997 141.75 122.479 142.209 98.9011 142.218C97.6401 142.905 96.4872 143.708 95.4425 144.629C94.272 143.454 93.3497 142.077 92.6756 140.496C92.6756 140.267 92.6756 140.037 92.6756 139.808C97.9789 134.987 103.051 129.936 107.894 124.656C112.147 128.952 116.989 132.395 122.42 134.987C127.075 138.445 132.378 140.282 138.33 140.496C155.968 139.357 166.459 130.173 169.803 112.948C170.737 105.523 169.008 98.8654 164.615 92.9755C164.154 91.8275 163.693 90.6801 163.232 89.532C164.071 87.6553 165.339 86.0478 167.036 84.7111C167.165 86.4576 167.511 88.0644 168.074 89.532C168.499 91.7813 169.882 92.6994 172.224 92.2868C174.892 92.6112 176.276 91.4638 176.375 88.8433C176.948 84.1456 177.294 79.3247 177.412 74.3804C180.641 71.1662 183.868 67.9527 187.096 64.7385C187.435 65.6292 187.551 66.5478 187.442 67.4934Z" fill="#8993CC"/>
<path fill-rule="evenodd" clip-rule="evenodd" d="M137.638 71.6256C143.811 72.4486 149.345 74.7441 154.239 78.5127C157.782 81.8033 160.779 85.4769 163.232 89.532C163.693 90.6801 164.154 91.8275 164.615 92.9755C166.111 98.4322 166.341 103.942 165.307 109.505C163.924 110.653 162.54 111.8 161.157 112.948C162.955 106.889 162.955 100.92 161.157 95.0417C159.95 91.1939 157.99 87.7503 155.277 84.7111C150.896 89.0726 146.515 93.4349 142.134 97.7965C142.939 100.448 143.17 103.203 142.826 106.061C141.433 110.889 138.205 113.414 133.142 113.637C130.654 113.372 128.463 112.454 126.57 110.882C124.907 108.788 123.985 106.378 123.803 103.651C124.294 101.673 124.64 99.7214 124.841 97.7965C120.435 93.2951 115.939 88.9335 111.352 84.7111C112.505 84.0223 113.427 83.1043 114.119 81.9562C118.36 86.523 122.741 90.9996 127.262 95.386C129.195 95.1856 131.156 94.8413 133.142 94.353C135.353 94.8654 137.544 95.2097 139.713 95.386C144.094 91.0244 148.475 86.6622 152.856 82.3006C146.329 76.6532 138.72 74.2427 130.029 75.0691C131.969 74.5051 134.044 74.1607 136.254 74.0361C137.17 73.4741 137.63 72.6704 137.638 71.6256Z" fill="#42486D"/>
<path fill-rule="evenodd" clip-rule="evenodd" d="M202.66 86.0885C202.43 86.7772 201.969 87.2365 201.277 87.4659C197.135 87.3529 196.213 85.6312 198.51 82.3006C201.964 81.2613 203.347 82.5244 202.66 86.0885Z" fill="#3E446A"/>
<path fill-rule="evenodd" clip-rule="evenodd" d="M128.645 85.3998C132.677 85.0898 136.597 85.5485 140.405 86.7772C141.047 87.596 141.278 88.5141 141.097 89.532C136.01 88.802 130.938 88.6876 125.879 89.1876C125.221 88.6932 125.106 88.1195 125.533 87.4659C126.507 86.5836 127.545 85.8949 128.645 85.3998Z" fill="#444A6F"/>
<path fill-rule="evenodd" clip-rule="evenodd" d="M161.157 95.0417C160.675 119.055 148.455 130.188 124.495 128.444C120.736 127.545 117.277 126.052 114.119 123.967C117.768 119.185 121.918 114.823 126.57 110.882C128.463 112.454 130.654 113.372 133.142 113.637C138.205 113.414 141.433 110.889 142.826 106.061C143.17 103.203 142.939 100.448 142.134 97.7965C146.515 93.4349 150.896 89.0726 155.277 84.7111C157.99 87.7503 159.95 91.1939 161.157 95.0417Z" fill="#9EA3B8"/>
<path fill-rule="evenodd" clip-rule="evenodd" d="M161.157 95.0417C162.955 100.92 162.955 106.889 161.157 112.948C157.309 123.778 149.7 130.321 138.33 132.576C127.388 134.237 118.395 130.909 111.352 122.59C112.433 122.75 113.355 123.21 114.119 123.967C117.277 126.052 120.736 127.545 124.495 128.444C148.455 130.188 160.675 119.055 161.157 95.0417Z" fill="#818499"/>
<path fill-rule="evenodd" clip-rule="evenodd" d="M111.352 84.7111C115.939 88.9335 120.435 93.2951 124.841 97.7965C124.64 99.7214 124.294 101.673 123.803 103.651C123.985 106.378 124.907 108.788 126.57 110.882C121.918 114.823 117.768 119.185 114.119 123.967C113.355 123.21 112.433 122.75 111.352 122.59C104.193 113.796 102.463 103.925 106.164 92.9755C107.501 89.9335 109.231 87.1787 111.352 84.7111Z" fill="#9EA3B8"/>
<path fill-rule="evenodd" clip-rule="evenodd" d="M131.412 97.7965C137.282 97.5562 139.934 100.311 139.367 106.061C137.74 109.454 135.088 110.717 131.412 109.849C125.917 105.834 125.917 101.816 131.412 97.7965Z" fill="#E9E9EB"/>
<path fill-rule="evenodd" clip-rule="evenodd" d="M81.6079 73.6917C85.0077 88.7249 88.4664 103.762 91.9839 118.802C91.7595 121.268 90.3761 122.301 87.8335 121.901C83.9526 107.091 80.494 92.1691 77.4576 77.1353C76.8125 73.4107 78.1959 72.2627 81.6079 73.6917Z" fill="#C5C9E6"/>
<path fill-rule="evenodd" clip-rule="evenodd" d="M164.615 92.9755C169.008 98.8654 170.737 105.523 169.803 112.948C166.459 130.173 155.968 139.357 138.33 140.496C132.378 140.282 127.075 138.445 122.42 134.987C138.099 138.928 150.896 134.567 160.811 121.901C163.206 118.074 164.705 113.942 165.307 109.505C166.341 103.942 166.111 98.4322 164.615 92.9755Z" fill="#5C6495"/>
<path fill-rule="evenodd" clip-rule="evenodd" d="M90.6004 132.232C89.926 130.464 89.4648 128.628 89.2169 126.722C91.3785 125.571 93.3385 125.801 95.0966 127.411C95.7998 131.063 94.3011 132.671 90.6004 132.232Z" fill="#C3C8E4"/>
<path fill-rule="evenodd" clip-rule="evenodd" d="M137.638 71.6256C137.63 72.6704 137.17 73.4741 136.254 74.0361C134.044 74.1607 131.969 74.5051 130.029 75.0691C123.963 75.68 118.66 77.9755 114.119 81.9562C113.427 83.1043 112.505 84.0223 111.352 84.7111C109.231 87.1787 107.501 89.9335 106.164 92.9755C102.463 103.925 104.193 113.796 111.352 122.59C118.395 130.909 127.388 134.237 138.33 132.576C149.7 130.321 157.309 123.778 161.157 112.948C162.54 111.8 163.924 110.653 165.307 109.505C164.705 113.942 163.206 118.074 160.811 121.901C150.896 134.567 138.099 138.928 122.42 134.987C116.989 132.395 112.147 128.952 107.894 124.656C99.6188 112.561 98.8118 99.9342 105.473 86.7772C113.198 75.5285 123.92 70.4782 137.638 71.6256Z" fill="#41476D"/>
<path fill-rule="evenodd" clip-rule="evenodd" d="M181.217 135.675C180.663 136.737 180.432 137.885 180.525 139.119C178.641 145.128 174.721 149.03 168.766 150.827C167.613 150.827 166.46 150.827 165.307 150.827C161.848 150.827 158.39 150.827 154.931 150.827C153.778 150.827 152.626 150.827 151.472 150.827C150.089 150.827 148.706 150.827 147.322 150.827C147.322 152.204 147.322 153.582 147.322 154.959C147.322 156.107 147.322 157.255 147.322 158.403C147.322 161.846 147.322 165.29 147.322 168.733C146.861 168.733 146.63 168.963 146.63 169.422C143.172 169.422 139.713 169.422 136.254 169.422C135.101 169.422 133.949 169.422 132.796 169.422C129.337 169.422 125.879 169.422 122.42 169.422C121.728 169.193 121.267 168.733 121.036 168.045C121.036 164.601 121.036 161.158 121.036 157.714C121.036 156.566 121.036 155.419 121.036 154.271C121.036 153.122 121.036 151.975 121.036 150.827C118.5 150.827 115.964 150.827 113.427 150.827C112.275 150.827 111.122 150.827 109.969 150.827C106.478 150.715 103.019 150.945 99.5929 151.516C98.8544 150.872 97.932 150.642 96.826 150.827C94.572 149.733 92.7274 148.127 91.2921 146.006C90.9932 145.173 90.5321 144.484 89.9087 143.94C89.6781 143.481 89.4475 143.022 89.2169 142.562C90.539 142.166 91.6919 141.478 92.6756 140.496C93.3497 142.077 94.272 143.454 95.4425 144.629C96.0256 145.781 96.9479 146.585 98.2094 147.039C121.728 147.498 145.247 147.498 168.766 147.039C172.634 145.366 175.171 142.496 176.375 138.43C177.988 137.512 179.603 136.593 181.217 135.675Z" fill="#3F446A"/>
<path fill-rule="evenodd" clip-rule="evenodd" d="M124.495 150.827C130.951 150.827 137.408 150.827 143.863 150.827C143.863 155.877 143.863 160.928 143.863 165.979C137.408 165.979 130.951 165.979 124.495 165.979C124.495 160.928 124.495 155.877 124.495 150.827Z" fill="#646A84"/>
<path fill-rule="evenodd" clip-rule="evenodd" d="M125.187 156.337C128.876 156.337 132.565 156.337 136.254 156.337C136.254 159.321 136.254 162.306 136.254 165.29C132.565 165.29 128.876 165.29 125.187 165.29C125.187 162.306 125.187 159.321 125.187 156.337Z" fill="#828599"/>
<path d="M31.2449 261.106C26.969 261.106 22.9374 260.315 19.1501 258.734C15.3629 257.092 12.0337 254.811 9.16273 251.892C6.29174 248.911 4.0316 245.414 2.38231 241.4C0.794104 237.326 0 232.795 0 227.808C0 223.307 0.824646 219.111 2.47394 215.218C4.12323 211.326 6.41391 207.89 9.34599 204.91C12.2781 201.929 15.6988 199.618 19.6083 197.976C23.5788 196.273 27.8547 195.422 32.4361 195.422C38.4224 195.422 43.7062 196.699 48.2876 199.253C52.869 201.808 56.2592 205.244 58.4582 209.562L47.2797 217.955C45.8137 215.097 43.6757 212.846 40.8658 211.204C38.117 209.562 35.1238 208.741 31.8863 208.741C29.4429 208.741 27.1828 209.258 25.1059 210.292C23.0901 211.265 21.3186 212.664 19.7915 214.488C18.3255 216.252 17.1954 218.32 16.4013 220.692C15.6072 223.064 15.2101 225.618 15.2101 228.355C15.2101 231.153 15.6377 233.737 16.4929 236.109C17.3481 238.481 18.5393 240.549 20.0664 242.313C21.5935 244.016 23.3955 245.354 25.4724 246.327C27.6104 247.3 29.9621 247.786 32.5277 247.786C35.643 247.786 38.6057 247.026 41.4156 245.506C44.2865 243.924 46.9132 241.613 49.2955 238.572V253.351C44.1033 258.521 38.0864 261.106 31.2449 261.106ZM48.3792 237.66H35.7347V226.804H60.8406V260.649H48.3792V237.66Z" fill="#734ABA"/>
<path d="M92.4906 261.562C88.3979 261.562 84.7329 260.893 81.4954 259.555C78.3189 258.217 75.6312 256.392 73.4322 254.081C71.2331 251.77 69.5533 249.124 68.3926 246.144C67.2931 243.164 66.7434 240.032 66.7434 236.748C66.7434 233.403 67.2931 230.24 68.3926 227.26C69.5533 224.28 71.2331 221.635 73.4322 219.323C75.6312 217.012 78.3189 215.188 81.4954 213.85C84.7329 212.512 88.3979 211.843 92.4906 211.843C96.5833 211.843 100.218 212.512 103.394 213.85C106.571 215.188 109.258 217.012 111.458 219.323C113.657 221.635 115.336 224.28 116.497 227.26C117.658 230.24 118.238 233.403 118.238 236.748C118.238 240.032 117.658 243.164 116.497 246.144C115.336 249.124 113.657 251.77 111.458 254.081C109.258 256.392 106.571 258.217 103.394 259.555C100.218 260.893 96.5833 261.562 92.4906 261.562ZM81.7702 236.748C81.7702 239.241 82.2284 241.431 83.1447 243.316C84.122 245.202 85.4048 246.661 86.993 247.695C88.5812 248.729 90.4138 249.246 92.4906 249.246C94.5064 249.246 96.3085 248.729 97.8967 247.695C99.546 246.6 100.829 245.11 101.745 243.225C102.661 241.34 103.119 239.181 103.119 236.748C103.119 234.254 102.661 232.065 101.745 230.179C100.829 228.294 99.546 226.834 97.8967 225.801C96.3085 224.767 94.5064 224.25 92.4906 224.25C90.4138 224.25 88.5812 224.767 86.993 225.801C85.4048 226.834 84.122 228.294 83.1447 230.179C82.2284 232.065 81.7702 234.254 81.7702 236.748Z" fill="#734ABA"/>
<path d="M144.201 260.832C141.024 260.832 138.123 260.224 135.496 259.007C132.869 257.73 130.609 255.997 128.716 253.807C126.883 251.557 125.448 248.972 124.409 246.053C123.371 243.134 122.852 240.002 122.852 236.657C122.852 233.129 123.401 229.875 124.501 226.895C125.6 223.915 127.127 221.3 129.082 219.05C131.098 216.739 133.45 214.975 136.137 213.759C138.886 212.481 141.91 211.843 145.209 211.843C148.813 211.843 151.989 212.633 154.738 214.215C157.487 215.735 159.686 217.864 161.335 220.601V212.755H174.071V257.365C174.071 262.231 172.88 266.427 170.498 269.955C168.176 273.482 164.908 276.188 160.694 278.074C156.54 280.02 151.714 280.993 146.216 280.993C141.085 280.993 136.657 280.142 132.931 278.439C129.265 276.797 126.058 274.455 123.31 271.414L131.19 263.477C132.961 265.484 135.16 267.066 137.787 268.221C140.413 269.438 143.223 270.046 146.216 270.046C148.599 270.046 150.798 269.62 152.814 268.769C154.829 267.917 156.418 266.549 157.578 264.663C158.8 262.778 159.411 260.345 159.411 257.365V252.713C157.945 255.328 155.807 257.335 152.997 258.734C150.248 260.132 147.316 260.832 144.201 260.832ZM149.24 249.246C150.401 249.246 151.47 249.094 152.447 248.79C153.486 248.425 154.432 247.969 155.288 247.421C156.143 246.813 156.937 246.114 157.67 245.323C158.403 244.472 158.983 243.559 159.411 242.586V232.551C158.8 230.848 157.914 229.389 156.754 228.172C155.593 226.895 154.31 225.922 152.905 225.253C151.5 224.584 150.034 224.25 148.507 224.25C146.98 224.25 145.545 224.584 144.201 225.253C142.857 225.922 141.696 226.895 140.719 228.172C139.803 229.389 139.07 230.757 138.52 232.278C138.031 233.798 137.787 235.379 137.787 237.022C137.787 238.785 138.062 240.397 138.611 241.857C139.222 243.316 140.047 244.624 141.085 245.779C142.124 246.874 143.345 247.726 144.75 248.334C146.155 248.942 147.652 249.246 149.24 249.246Z" fill="#734ABA"/>
<path d="M181.369 236.657C181.369 231.974 182.285 227.777 184.118 224.067C185.951 220.297 188.455 217.316 191.631 215.127C194.808 212.938 198.473 211.843 202.627 211.843C205.986 211.843 209.041 212.664 211.789 214.306C214.538 215.887 216.615 217.985 218.02 220.601V194.053H232.68V244.411C232.68 245.871 232.925 246.904 233.413 247.513C233.902 248.06 234.696 248.395 235.796 248.516V260.649C233.23 261.136 231.153 261.379 229.565 261.379C227.061 261.379 225.014 260.832 223.426 259.737C221.899 258.642 220.952 257.122 220.586 255.176L220.311 252.713C218.6 255.693 216.279 257.913 213.347 259.372C210.415 260.832 207.33 261.562 204.093 261.562C200.794 261.562 197.74 260.953 194.93 259.737C192.181 258.46 189.768 256.696 187.691 254.446C185.676 252.196 184.118 249.55 183.018 246.509C181.919 243.468 181.369 240.184 181.369 236.657ZM218.112 242.586V232.551C217.501 230.909 216.615 229.48 215.455 228.264C214.355 227.047 213.072 226.074 211.606 225.344C210.201 224.615 208.766 224.25 207.3 224.25C205.711 224.25 204.245 224.584 202.902 225.253C201.619 225.922 200.489 226.865 199.511 228.081C198.534 229.237 197.77 230.575 197.221 232.095C196.732 233.616 196.488 235.227 196.488 236.93C196.488 238.694 196.763 240.336 197.312 241.857C197.923 243.316 198.748 244.624 199.786 245.779C200.825 246.874 202.046 247.726 203.451 248.334C204.856 248.942 206.383 249.246 208.033 249.246C209.071 249.246 210.079 249.094 211.056 248.79C212.034 248.425 212.95 247.969 213.805 247.421C214.722 246.874 215.546 246.175 216.279 245.323C217.012 244.472 217.623 243.559 218.112 242.586Z" fill="#734ABA"/>
<path d="M243.886 194.053H258.547V243.59C258.547 245.597 258.913 247.026 259.646 247.878C260.379 248.729 261.418 249.155 262.761 249.155C263.678 249.155 264.594 249.033 265.51 248.79C266.488 248.486 267.343 248.151 268.076 247.786L270 258.734C268.167 259.585 266.06 260.254 263.678 260.741C261.295 261.227 259.066 261.47 256.989 261.47C252.835 261.47 249.598 260.376 247.276 258.186C245.016 255.936 243.886 252.773 243.886 248.699V194.053Z" fill="#734ABA"/>
</svg>
